PathFileType	4	(X/Y/Z)	 s06c0203.trc
DataRate	CameraRate	NumFrames	NumMarkers	Units	OrigDataRate	OrigDataStartFrame	OrigNumFrames
200	200	5	48	mm	200	1501	2000
Frame#	Time	racr			lacr			c7			jug			rlel			rdr			llel			ldr			s2			lic			ric			lasi			rasi			rpsi			lpsi			rgt			lgt			rth1			rth2			rth3			rth4			rlfc			rmfc			rsh1			rsh2			rsh3			rsh4			rlmal			rcal			rtoe			rmt5			lth1			lth2			lth4			lth3			llfc			lmfc			llmal			lcal			lmt5			lsh1			lsh2			lsh3			lsh4			ltoe			SBIKE			LBIKE			RBIKE			
		X1	Y1	Z1	X2	Y2	Z2	X3	Y3	Z3	X4	Y4	Z4	X5	Y5	Z5	X6	Y6	Z6	X7	Y7	Z7	X8	Y8	Z8	X9	Y9	Z9	X10	Y10	Z10	X11	Y11	Z11	X12	Y12	Z12	X13	Y13	Z13	X14	Y14	Z14	X15	Y15	Z15	X16	Y16	Z16	X17	Y17	Z17	X18	Y18	Z18	X19	Y19	Z19	X20	Y20	Z20	X21	Y21	Z21	X22	Y22	Z22	X23	Y23	Z23	X24	Y24	Z24	X25	Y25	Z25	X26	Y26	Z26	X27	Y27	Z27	X28	Y28	Z28	X29	Y29	Z29	X30	Y30	Z30	X31	Y31	Z31	X32	Y32	Z32	X33	Y33	Z33	X34	Y34	Z34	X35	Y35	Z35	X36	Y36	Z36	X37	Y37	Z37	X38	Y38	Z38	X39	Y39	Z39	X40	Y40	Z40	X41	Y41	Z41	X42	Y42	Z42	X43	Y43	Z43	X44	Y44	Z44	X45	Y45	Z45	X46	Y46	Z46	X47	Y47	Z47	X48	Y48	Z48	
1501	7.5050	605.681888	1193.219800	-106.767627	596.156800	1186.450944	-420.617764	611.075036	1292.707947	-259.021861	571.533236	1138.185914	-267.637866	502.584724	1014.626562	77.878608	655.355814	917.061825	-41.800047	462.326750	960.946896	-525.786300	650.452628	917.639430	-408.510548	43.003200	1149.366358	-202.770614	179.345415	1108.581630	-389.012858	196.463136	1104.567325	-56.042756	203.613280	1053.320654	-348.986352	217.509286	1068.801979	-97.339033	80.242343	1182.463748	-175.140632	77.768237	1179.600090	-234.198264	167.336008	1041.525321	-9.362379	152.209907	1024.804432	-403.875627	263.580115	963.156252	-18.185213	342.963627	919.930627	-27.570559	388.703307	846.083177	-30.325310	363.328842	944.758630	-47.504266	424.000009	749.997082	-55.013453	400.102794	732.031431	-164.858281	327.635503	673.079744	-27.983689	260.471323	619.758198	-49.494058	176.692432	597.234104	-45.005050	270.758785	606.068021	-84.885313	97.700912	568.130373	-43.041573	31.576126	597.879961	-90.256914	186.937355	368.924797	-95.383286	113.626335	433.112403	-23.396826	188.820753	895.077890	-416.700288	245.380324	829.731137	-406.415815	277.121349	845.774246	-395.103845	261.527543	741.807873	-396.768681	290.260622	623.075519	-376.586905	280.728699	602.734154	-265.421627	206.861436	253.639531	-377.253018	138.071142	206.304536	-331.154521	335.447479	222.609173	-401.233689	273.246451	511.874273	-400.918902	272.484362	427.866287	-381.290094	232.225582	348.546218	-384.629217	293.584210	426.337449	-347.355982	415.579181	252.019430	-341.400216	-204.399992	866.564479	-203.175233	-52.217632	84.010947	-410.489480	-50.943448	80.018171	-13.637329	
1502	7.5100	604.414594	1193.731263	-105.142172	596.982288	1186.527722	-418.739912	611.551968	1292.876473	-257.325831	571.000843	1138.630269	-266.024963	502.062757	1014.029133	77.544053	655.600262	917.496154	-42.311280	463.934103	962.301789	-526.106776	650.897854	917.656570	-408.139459	43.857692	1149.619561	-206.146802	180.724741	1108.088136	-389.249021	195.392983	1107.455823	-57.141485	205.263681	1053.026096	-349.576492	216.771691	1070.860204	-97.619453	80.427306	1182.978372	-178.226645	78.373059	1179.793269	-237.206667	167.406488	1046.307268	-10.316754	152.696529	1021.672388	-404.772961	264.812900	968.591709	-18.145912	345.066032	927.567989	-27.299776	392.389180	854.719584	-29.261489	364.520439	953.087783	-46.830641	430.540737	759.111083	-55.063982	407.461886	741.180977	-165.620879	334.470036	681.968502	-28.271205	267.355217	628.415217	-49.696845	183.634462	605.848509	-45.165561	278.430717	613.989710	-85.291413	104.598710	576.422904	-43.310765	37.997547	605.868156	-90.410975	194.629980	377.612605	-95.499096	121.141940	441.416152	-23.597678	186.458935	891.514400	-417.469285	240.749792	824.249573	-407.243579	272.994833	839.200644	-395.639394	253.882800	735.764537	-397.769890	279.794738	616.759628	-377.508703	268.326236	596.185375	-266.020936	199.357130	246.607628	-377.242577	130.681283	199.851296	-330.955904	328.150228	214.784756	-401.150739	263.348361	505.620107	-401.699874	263.221207	421.576184	-381.847552	223.563449	342.057476	-385.155697	284.376797	420.328092	-348.019202	408.526022	243.596999	-341.399004	-204.392423	866.624816	-203.218433	-52.228398	84.039242	-410.485746	-51.018574	80.568301	-13.178316	
1503	7.5150	603.099861	1194.474189	-103.493517	597.835282	1186.539633	-416.871749	611.956570	1292.868657	-255.882636	570.445980	1138.869258	-264.257010	501.283415	1013.394394	76.874470	655.772545	918.024817	-42.761275	465.395981	963.210002	-526.122964	651.498207	917.703794	-408.044572	45.322443	1149.641619	-209.780184	182.019785	1107.211667	-389.274477	194.284488	1110.178191	-58.393207	207.359291	1052.920943	-350.711670	215.827874	1072.658537	-98.020739	80.514422	1183.343082	-181.268335	78.922283	1179.838107	-240.425432	167.062432	1050.976837	-11.375772	153.150449	1018.417036	-405.591323	265.682666	974.174854	-17.383199	347.055315	934.780053	-27.286516	396.743310	863.492320	-29.323617	365.471058	961.414403	-46.472696	437.043754	768.455275	-55.262428	414.662545	750.280485	-166.254385	341.299115	690.799548	-28.569007	274.373090	636.919535	-49.873854	190.772969	614.176710	-45.363128	285.622791	622.409895	-85.401812	111.778856	584.239571	-43.543989	44.944995	613.219170	-90.646049	202.724760	385.776352	-95.776709	129.340336	449.261964	-23.703640	184.071389	887.889008	-418.386528	236.056034	818.834193	-408.347722	268.696137	832.624509	-396.442932	246.125482	729.934119	-398.814101	269.453745	611.147883	-378.758695	256.196988	590.523333	-266.891164	191.480961	240.379005	-377.170004	123.096092	194.337730	-330.775208	320.730858	207.246784	-401.030057	253.389488	500.218769	-402.618794	253.757418	416.116572	-382.648774	214.498708	336.499215	-385.706328	275.105035	415.177030	-348.970075	401.432781	235.268950	-341.289325	-204.400183	866.683461	-203.274467	-52.242582	84.042103	-410.500693	-50.996110	80.552398	-13.217005	
1504	7.5200	601.883630	1195.217494	-101.591244	598.976139	1186.347737	-415.370537	612.252701	1292.784062	-254.420123	570.233830	1138.906465	-262.312591	500.407560	1012.894102	76.402132	655.788488	918.867452	-43.326759	466.843469	964.061608	-526.112575	652.099755	917.871420	-408.154583	46.527883	1149.441213	-213.219257	183.509135	1105.911615	-389.259356	193.083863	1112.665629	-59.694944	208.765821	1052.054180	-350.371205	215.056952	1074.451288	-98.510108	80.739258	1183.781611	-184.706284	79.478592	1179.683671	-243.621287	166.823763	1054.970056	-12.577593	153.625803	1015.132792	-406.306949	266.793264	978.893388	-17.482320	348.933942	941.828193	-27.295515	399.167019	873.215217	-26.806794	366.636253	968.910009	-46.486933	443.468890	777.605885	-55.790807	421.759468	759.269659	-166.957560	348.176941	699.636007	-28.886570	281.671157	645.426816	-49.981076	198.022043	622.147371	-45.549223	292.862778	630.693319	-85.543981	118.980851	591.535097	-43.913941	51.927068	620.056649	-90.983828	212.606602	394.995480	-94.473930	137.645855	456.837986	-23.798547	181.618524	884.284704	-419.686324	231.069607	813.660290	-409.863027	264.328558	826.339723	-397.512503	238.395194	724.375831	-400.197838	259.340508	606.210631	-380.189626	245.300851	585.495390	-267.874919	183.528111	235.006306	-377.092403	115.195898	189.811505	-330.563490	312.964206	200.343167	-400.896470	243.525514	495.643414	-403.605905	244.428016	411.619837	-383.817466	205.294817	331.765011	-386.176764	266.012594	411.024878	-350.624711	394.064484	227.381290	-341.256466	-204.417107	866.693135	-203.293950	-52.248965	84.055170	-410.519184	-51.007475	80.588809	-13.201114	
1505	7.5250	600.647377	1195.875706	-99.652902	600.010874	1185.919743	-413.466897	612.487096	1292.643435	-253.015540	569.970256	1138.886671	-260.397056	499.454854	1012.407662	76.102328	655.875331	919.581872	-43.683266	468.306912	964.718933	-526.188768	652.743211	918.030895	-408.277747	47.412921	1149.054718	-216.522017	185.285397	1104.258745	-389.355386	192.156330	1115.145141	-60.570093	210.121957	1050.775559	-350.195227	214.809300	1076.470872	-98.631323	80.900316	1184.121276	-187.900782	79.816613	1179.455970	-246.603052	166.386877	1058.530408	-13.717183	154.185217	1012.017350	-407.006482	267.646926	983.307261	-17.824937	350.850265	948.692328	-27.330217	402.861010	881.887022	-26.340499	367.566159	976.395361	-46.795452	449.824883	786.953263	-56.580897	428.378927	768.458898	-166.903740	355.020859	708.365577	-29.259837	288.887250	653.624620	-50.275097	205.471839	629.835915	-45.730069	300.347707	638.672114	-85.739270	126.382668	598.311991	-44.219633	58.933598	626.107398	-91.325110	221.173951	401.972292	-95.729129	145.876275	463.628320	-24.268969	178.977778	880.813705	-421.148216	225.980194	808.581700	-411.428053	259.869231	820.151623	-398.883933	230.440426	719.011150	-402.594172	249.596536	601.969332	-381.911755	234.739697	581.856515	-268.725961	175.760640	230.385659	-376.876107	106.996123	186.220203	-330.313621	304.819382	193.855613	-400.853079	233.998576	491.607417	-404.810669	235.230637	407.479260	-385.019549	196.130783	327.597547	-386.716855	257.003900	406.616550	-351.678536	386.374396	219.853822	-341.311824	-204.457490	866.727227	-203.282296	-52.269135	84.041968	-410.528074	-51.028031	80.619530	-13.198958	
